<?xml version="1.0" standalone="no"?>
<!DOCTYPE svg PUBLIC "-//W3C//DTD SVG 20010904//EN"
 "http://www.w3.org/TR/2001/REC-SVG-20010904/DTD/svg10.dtd">
<svg version="1.0" xmlns="http://www.w3.org/2000/svg"
 width="2048.000000pt" height="2048.000000pt" viewBox="0 0 2048.000000 2048.000000"
 preserveAspectRatio="xMidYMid meet">

<g transform="translate(0.000000,2048.000000) scale(0.100000,-0.100000)"
fill="#000000" stroke="none">
<path d="M7760 16138 c-101 -17 -265 -61 -310 -84 -219 -108 -384 -408 -810
-1469 -494 -1232 -834 -2195 -2032 -5765 -349 -1040 -524 -1548 -684 -1985
-69 -187 -157 -439 -194 -560 -38 -121 -90 -276 -115 -344 -25 -68 -45 -130
-43 -139 2 -9 34 36 73 99 38 62 116 188 172 278 179 285 346 640 596 1271
263 662 447 1160 1320 3565 681 1875 1048 2819 1451 3734 265 600 392 797 545
849 140 48 364 -48 616 -263 267 -228 567 -536 1327 -1362 1348 -1466 1956
-2106 3603 -3793 651 -667 834 -853 2190 -2225 1125 -1139 4087 -4106 4093
-4100 3 2 -22 33 -54 68 -2580 2762 -3202 3443 -5449 5972 -1262 1421 -1965
2208 -2191 2455 -23 25 -155 171 -294 325 -266 294 -293 324 -730 795 -150
162 -323 349 -384 415 -61 66 -142 154 -181 195 -83 89 -241 260 -425 460 -74
80 -159 172 -190 205 -31 33 -94 100 -141 150 -342 365 -671 689 -870 856
-169 143 -287 223 -449 304 -198 99 -290 118 -440 93z"/>
</g>
</svg>
