<?xml version="1.0" standalone="no"?>
<svg viewBox="0 0 200 200" xmlns="http://www.w3.org/2000/svg">
  <path fill="#8B0000" d="M8.4,-15.9C16.1,-10.1,31.2,-18.4,31.6,-18.1C32,-17.8,17.9,-8.9,23.3,3.1C28.7,15.1,53.7,30.3,60.4,43C67.2,55.8,55.7,66.1,42.6,69.3C29.5,72.4,14.7,68.3,7.3,55.6C-0.1,43,-0.2,21.8,-13.6,18.8C-26.9,15.8,-53.5,31,-70.1,30.9C-86.6,30.8,-93.1,15.4,-85.6,4.4C-78.1,-6.7,-56.5,-13.4,-45.6,-23.3C-34.7,-33.2,-34.5,-46.3,-28.7,-53.2C-22.8,-60.1,-11.4,-60.8,-5.5,-51.2C0.4,-41.6,0.7,-21.8,8.4,-15.9Z" transform="translate(100 100)" />
</svg>
