<?xml version="1.0" standalone="no"?>
<!DOCTYPE svg PUBLIC "-//W3C//DTD SVG 20010904//EN"
 "http://www.w3.org/TR/2001/REC-SVG-20010904/DTD/svg10.dtd">
<svg version="1.0" xmlns="http://www.w3.org/2000/svg"
 width="2048.000000pt" height="2048.000000pt" viewBox="0 0 2048.000000 2048.000000"
 preserveAspectRatio="xMidYMid meet">

<g transform="translate(0.000000,2048.000000) scale(0.100000,-0.100000)"
fill="#000000" stroke="none">
<path d="M19345 15363 c-2855 -1649 -5353 -3166 -8025 -4876 -1369 -876 -3601
-2359 -4630 -3076 -1197 -834 -1822 -1281 -2495 -1785 -299 -224 -310 -232
-300 -215 15 24 1050 1119 1634 1729 1207 1260 3053 3119 4022 4050 1019 981
2214 2056 3139 2825 293 244 517 436 759 650 361 319 385 340 424 369 21 16
36 31 33 33 -5 5 -665 -441 -901 -608 -943 -671 -2561 -2057 -4040 -3459
-1050 -997 -2663 -2601 -3910 -3890 -707 -732 -928 -961 -1330 -1380 -556
-579 -919 -940 -1235 -1230 -224 -205 -270 -258 -270 -317 0 -53 78 -190 133
-235 55 -43 66 -43 152 0 181 90 425 262 1315 927 688 514 1056 787 1360 1010
74 55 176 129 225 165 192 141 1178 856 1515 1100 861 621 2425 1720 3665
2577 1210 835 3167 2131 4580 3031 978 623 3231 2014 4305 2657 300 180 275
164 269 169 -2 2 -179 -97 -394 -221z"/>
</g>
</svg>
