<?xml version="1.0" standalone="no"?>
<svg viewBox="0 0 200 200" xmlns="http://www.w3.org/2000/svg">
  <path fill="#08BDBA" d="M15.1,-31.4C21.6,-22.3,30.4,-22.5,39.1,-18.8C47.8,-15.1,56.5,-7.5,53.8,-1.5C51.1,4.4,37.1,8.9,32.1,19C27.1,29.2,31.1,45,27.3,46.9C23.4,48.7,11.7,36.6,5.3,27.4C-1.1,18.2,-2.2,12,-16.3,16C-30.4,20.1,-57.4,34.4,-60.1,33.5C-62.7,32.5,-41,16.3,-41.3,-0.2C-41.7,-16.7,-64.1,-33.3,-61.7,-34.6C-59.2,-35.9,-31.9,-21.9,-17.4,-26.4C-3,-30.9,-1.5,-54,1.4,-56.4C4.3,-58.8,8.6,-40.5,15.1,-31.4Z" transform="translate(100 100)" />
</svg>
